# AST/ASF file generated using VICON BodyLanguage
# -----------------------------------------------
:version 1.10
:name VICON
:units
  mass 1.0
  length 0.45
  angle deg
:documentation
   .ast/.asf automatically generated from VICON data using
   VICON BodyBuilder and BodyLanguage model FoxedUp or BRILLIANT.MOD
:root
   order TX TY TZ RX RY RZ
   axis XYZ
   position 0 0 0  
   orientation 0 -0 0 
:bonedata
  begin
     id 1 
     name lhipjoint
     direction 0.500677 -0.737119 0.453848 
     length 2.34727 
     axis 0 -0 0  XYZ
  end
  begin
     id 2 
     name lfemur
     direction 0.34202 -0.939693 0  
     length 7.53653  
     axis 0 -0 20  XYZ
    dof rx ry rz
    limits (-160.0 20.0)
           (-70.0 70.0)
           (-60.0 70.0)
  end
  begin
     id 3 
     name ltibia
     direction 0.34202 -0.939693 0   
     length 6.85572   
     axis 0 -0 20   XYZ
    dof rx
    limits (-10.0 170.0)
  end
  begin
     id 4 
     name lfoot
     direction 0.155313 -0.426718 0.890949   
     length 2.18324   
     axis -90 -1.13533e-015 20   XYZ
    dof rx rz
    limits (-45.0 90.0)
           (-70.0 20.0)
  end
  begin
     id 5 
     name ltoes
     direction 1.53474e-011 -4.21647e-011 1   
     length 1.06748   
     axis -90 -1.13533e-015 20   XYZ
    dof rx
    limits (-90.0 20.0)
  end
  begin
     id 6 
     name rhipjoint
     direction -0.632471 -0.659587 0.406111   
     length 2.62319  
     axis 0 -0 0  XYZ 
  end
  begin
     id 7 
     name rfemur
     direction -0.34202 -0.939693 0   
     length 7.21735   
     axis 0 -0 -20   XYZ
    dof rx ry rz
    limits (-160.0 20.0)
           (-70.0 70.0)
           (-70.0 60.0)
  end
  begin
     id 8 
     name rtibia
     direction -0.34202 -0.939693 0   
     length 7.02558   
     axis 0 -0 -20   XYZ
    dof rx
    limits (-10.0 170.0)
 end
 begin
     id 9 
     name rfoot
     direction -0.16057 -0.441164 0.882945   
     length 2.10014  
     axis -90 1.13533e-015 -20   XYZ
    dof rx rz
    limits (-45.0 90.0)
           (-20.0 70.0)
  end
  begin
     id 10 
     name rtoes
     direction -1.53553e-011 -4.2192e-011 1   
     length 1.02554   
     axis -90 1.13533e-015 -20   XYZ
    dof rx
    limits (-90.0 20.0)
  end
  begin
     id 11 
     name lowerback
     direction 0.0401429 0.998861 -0.0258085   
     length 1.80848   
     axis 0 -0 0   XYZ
    dof rx ry rz
    limits (-20.0 45.0)
           (-30.0 30.0)
           (-30.0 30.0)
  end
  begin
     id 12 
     name upperback
     direction -0.0130978 0.999914 -0.000352645   
     length 1.8116   
     axis 0 -0 0   XYZ
    dof rx ry rz
    limits (-20.0 45.0)
           (-30.0 30.0)
           (-30.0 30.0)
  end
  begin
     id 13 
     name thorax
     direction -0.0300198 0.999453 0.0138573   
     length 1.81778   
     axis 0 -0 0   XYZ
    dof rx ry rz
    limits (-20.0 45.0)
           (-30.0 30.0)
           (-30.0 30.0)
  end
  begin
     id 14 
     name lowerneck
     direction -0.0401726 0.999191 -0.00173647   
     length 2.10594   
     axis 0 -0 0   XYZ
    dof rx ry rz
    limits (-20.0 45.0)
           (-30.0 30.0)
           (-30.0 30.0)
  end
  begin
     id 15 
     name upperneck
     direction 0.0119835 0.998501 0.0534085   
     length 2.07325   
     axis 0 -0 0   XYZ
    dof rx ry rz
    limits (-20.0 45.0)
           (-30.0 30.0)
           (-30.0 30.0)
  end
  begin
     id 16
     name head
     direction 0.00628309 0.999826 0.0175921  
     length 2.15096  
     axis 0 -0 0   XYZ
    dof rx ry rz
    limits (-20.0 45.0)
           (-30.0 30.0)
           (-30.0 30.0)
  end
  begin
     id 17 
     name lclavicle
     direction 0.895501 0.429681 -0.115981  
     length 4.18092  
     axis 0 -0 0   XYZ
    dof ry rz
    limits (-20.0 10.0)
           (0.0 20.0)
  end
  begin
     id 18 
     name lhumerus
     direction 1 -4.48961e-011 -3.38433e-028   
     length 5.77237   
     axis 180 -30 -90   XYZ
    dof rx ry rz
    limits (-60.0 90.0)
           (-90.0 90.0)
           (-90.0 90.0)
  end
  begin
     id 19
     name lradius
     direction 1 -4.4901e-011 1.11983e-026   
     length 2.91878   
     axis 180 -30 -90   XYZ
    dof rx
    limits (-10.0 170.0)
  end
  begin
     id 20
     name lwrist
     direction 1 -4.48934e-011 1.88176e-026   
     length 1.45939   
     axis -1.23311e-014 90 90   XYZ
    dof ry
    limits (-180.0 0.0)
 end
  begin
     id 21 
     name lhand
     direction 1 -4.4895e-011 3.76352e-026   
     length 1.06566   
     axis -2.40147e-014 90 90   XYZ
    dof rx rz
    limits (-90.0 90.0)
           (-45.0 45.0)
  end
  begin
     id 22 
     name lfingers
     direction 1 -4.49005e-011 7.52705e-026   
     length 0.859162   
     axis -4.80295e-014 90 90   XYZ
    dof rx
    limits (0.0 90.0)
  end
  begin
     id 23
     name lthumb
     direction 0.707107 -6.34885e-011 0.707107   
     length 1.23359   
     axis -90 45 -9.86935e-015   XYZ
    dof rx rz
    limits (-45.0 45.0)
           (-45.0 45.0)
  end
  begin
     id 24 
     name rclavicle
     direction -0.91006 0.40451 -0.0903492   
     length 4.23293  
     axis 0 -0 0   XYZ 
    dof ry rz
    limits (-10.0 20.0)
           (-20.0 0.0)
  end
  begin
     id 25 
     name rhumerus
     direction -1 -4.4897e-011 1.7415e-027  
     length 5.49854   
     axis 180 30 90   XYZ
    dof rx ry rz
    limits (-90.0 60.0)
           (-90.0 90.0)
           (-90.0 90.0)
  end
  begin
     id 26 
     name rradius
     direction -1 -4.48963e-011 1.21259e-026   
     length 3.1186   
     axis 180 30 90   XYZ
    dof rx
    limits (-10.0 170.0)
  end
  begin
     id 27 
     name rwrist
     direction -1 -4.48967e-011 1.88176e-026   
     length 1.5593   
     axis -1.23311e-014 -90 -90   XYZ
    dof ry
    limits (-180.0 0.0)
  end
  begin
     id 28
     name rhand
     direction -1 -4.4895e-011 3.76352e-026   
     length 0.71207   
     axis -2.40147e-014 -90 -90   XYZ
    dof rx rz
    limits (-90.0 90.0)
           (-45.0 45.0)
  end
  begin
     id 29
     name rfingers
     direction -1 -4.49005e-011 7.52705e-026   
     length 0.574089   
     axis -4.80295e-014 -90 -90   XYZ
    dof rx
    limits (0.0 90.0)
  end
  begin
     id 30
     name rthumb
     direction -0.707107 -6.34982e-011 0.707107   
     length 0.824281   
     axis -90 -45 9.86935e-015   XYZ
    dof rx rz
    limits (-45.0 45.0)
           (-45.0 45.0)
  end
:hierarchy
  begin
    root lhipjoint rhipjoint lowerback
    lhipjoint lfemur
    lfemur ltibia
    ltibia lfoot
    lfoot ltoes
    rhipjoint rfemur
    rfemur rtibia
    rtibia rfoot
    rfoot rtoes
    lowerback upperback
    upperback thorax
    thorax lowerneck lclavicle rclavicle
    lowerneck upperneck
    upperneck head
    lclavicle lhumerus
    lhumerus lradius
    lradius lwrist
    lwrist lhand lthumb
    lhand lfingers
    rclavicle rhumerus
    rhumerus rradius
    rradius rwrist
    rwrist rhand rthumb
    rhand rfingers
  end

#!OML:ASF C:\ViconDB\ViconDB\414\Spring2016\042216\male.ASF
:FULLY-SPECIFIED
:DEGREES
760
root 14.1734 17.6996 12.4313 -177.285 21.9861 -177.121
lowerback -1.65014 -3.7944 2.03229
upperback -0.302313 -5.08724 -0.456987
thorax 0.394169 -2.54033 -1.69128
lowerneck -3.80866 -1.12068 -7.96819
upperneck 5.05738 -1.50394 10.0228
head 2.2502 -0.577898 4.28781
rclavicle -2.1711e-014 -1.23246e-014
rhumerus -28.4542 -0.635424 -95.1999
rradius 30.0922
rwrist 21.0758
rhand 12.1322 -17.3964
rfingers 7.12502
rthumb 37.1457 -43.423
lclavicle -2.1711e-014 -1.23246e-014
lhumerus -32.2562 3.67585 93.6689
lradius 34.6712
lwrist -8.41638
lhand -2.56301 11.1075
lfingers 7.12502
lthumb 23.1333 39.7386
rfemur -19.8785 12.6176 20.9237
rtibia 21.6747
rfoot -10.0545 0.783803
rtoes -8.23652
lfemur 2.99451 -1.57107 -22.5207
ltibia 5.78442
lfoot -20.0663 4.553
ltoes -11.3759
761
root 14.1885 17.7044 12.3872 -177.274 21.7522 -177.054
lowerback -1.61075 -3.80144 2.00625
upperback -0.288052 -5.0958 -0.442963
thorax 0.389961 -2.54464 -1.66048
lowerneck -3.95484 -1.15925 -8.0248
upperneck 5.08774 -1.55159 10.1748
head 2.28935 -0.593203 4.34252
rclavicle 2.24301e-014 0
rhumerus -28.3475 -0.400898 -95.2904
rradius 30.0337
rwrist 21.7495
rhand 12.1119 -17.6232
rfingers 7.12502
rthumb 37.1265 -43.6549
lclavicle 2.24301e-014 0
lhumerus -32.4293 3.47645 93.8312
lradius 34.5134
lwrist -8.64188
lhand -2.53316 11.0869
lfingers 7.12502
lthumb 23.1619 39.7144
rfemur -20.1647 12.655 21.0624
rtibia 21.3221
rfoot -9.26069 1.45284
rtoes -7.79506
lfemur 4.00244 -1.71468 -22.4721
ltibia 4.01088
lfoot -19.3589 4.31863
ltoes -11.6897
762
root 14.2036 17.7041 12.3336 -177.316 21.5846 -177.172
lowerback -1.66719 -3.78312 1.83622
upperback -0.288282 -5.06907 -0.47787
thorax 0.433968 -2.53083 -1.60626
lowerneck -3.92484 -1.24016 -7.96196
upperneck 5.00439 -1.65996 10.1496
head 2.2693 -0.648146 4.32024
rclavicle 3.40823e-014 -7.55382e-015
rhumerus -28.2371 -0.345745 -95.2778
rradius 29.8387
rwrist 22.3796
rhand 11.9996 -17.5059
rfingers 7.12502
rthumb 37.0203 -43.5651
lclavicle 3.40823e-014 -7.55382e-015
lhumerus -32.641 3.1659 94.0103
lradius 34.3456
lwrist -8.68594
lhand -2.0318 11.3668
lfingers 7.12502
lthumb 23.6429 39.933
rfemur -20.3894 12.5164 21.0364
rtibia 20.958
rfoot -8.65659 2.13136
rtoes -7.59748
lfemur 5.62945 -1.79703 -22.6393
ltibia 0.981404
lfoot -18.2314 3.6317
ltoes -12.9754
763
root 14.2212 17.7013 12.2852 -177.323 21.3191 -177.172
lowerback -1.66932 -3.83638 1.74037
upperback -0.293308 -5.13844 -0.455449
thorax 0.43765 -2.56555 -1.53151
lowerneck -3.9804 -1.2163 -7.91918
upperneck 4.99427 -1.62527 10.1237
head 2.27178 -0.629674 4.30607
rclavicle 4.76928e-014 1.59028e-015
rhumerus -28.0829 -0.359372 -95.3008
rradius 29.5618
rwrist 23.3504
rhand 11.9991 -17.3296
rfingers 7.12502
rthumb 37.0198 -43.3889
lclavicle 4.76928e-014 1.59028e-015
lhumerus -33.0472 2.80293 94.2582
lradius 34.5233
lwrist -8.60206
lhand -2.02675 11.685
lfingers 7.12502
lthumb 23.6477 40.2506
rfemur -20.5838 12.2264 21.1827
rtibia 20.5842
rfoot -7.84318 2.60232
rtoes -6.86566
lfemur 6.29172 -1.97532 -22.6451
ltibia 1.59028e-014
lfoot -17.9587 3.2431
ltoes -13.4683
764
root 14.2399 17.6995 12.2342 -177.278 21.147 -177.112
lowerback -1.88967 -3.81499 1.65364
upperback -0.203172 -5.11364 -0.376316
thorax 0.668905 -2.55033 -1.42375
lowerneck -4.06407 -1.24003 -7.94803
upperneck 4.87371 -1.64434 10.0989
head 2.25193 -0.640657 4.3018
rclavicle 1.24892e-013 -2.38542e-015
rhumerus -27.938 -0.112416 -95.1999
rradius 29.4823
rwrist 24.0841
rhand 12.1247 -17.3888
rfingers 7.12502
rthumb 37.1387 -43.4173
lclavicle 1.24892e-013 -2.38542e-015
lhumerus -33.1655 2.6587 94.4987
lradius 34.423
lwrist -8.69389
lhand -1.8331 11.8807
lfingers 7.12502
lthumb 23.8335 40.4222
rfemur -20.808 12.2031 21.3603
rtibia 20.2379
rfoot -7.08629 2.57973
rtoes -6.74881
lfemur 6.46908 -2.06088 -22.5847
ltibia 2.70347e-014
lfoot -17.9953 3.03888
ltoes -11.7676
765
root 14.2564 17.6968 12.183 -177.323 21.0501 -177.174
lowerback -1.84534 -3.80229 1.53003
upperback -0.19804 -5.09328 -0.410855
thorax 0.657739 -2.54056 -1.38739
lowerneck -4.24931 -1.28989 -7.84545
upperneck 5.03345 -1.7145 10.0961
head 2.33548 -0.666457 4.28163
rclavicle 6.10572e-014 -3.97569e-016
rhumerus -27.7555 0.0301635 -95.3652
rradius 29.2463
rwrist 24.6854
rhand 11.9281 -17.6839
rfingers 7.12502
rthumb 36.9527 -43.7605
lclavicle 6.10572e-014 -3.97569e-016
lhumerus -33.3713 2.6856 94.5358
lradius 34.1337
lwrist -8.98871
lhand -2.10732 11.8525
lfingers 7.12502
lthumb 23.5705 40.4281
rfemur -20.9858 11.7767 21.5496
rtibia 19.933
rfoot -6.64362 2.94063
rtoes -6.40854
lfemur 6.69242 -2.07406 -22.6543
ltibia -2.22639e-014
lfoot -18.153 2.84825
ltoes -11.2507
